<?xml version="1.0" encoding="utf-8"?>
<svg version="1.1"
	xmlns="http://www.w3.org/2000/svg"
	xmlns:xlink="http://www.w3.org/1999/xlink" x="0px" y="0px" viewBox="0 0 512 512" style="enable-background:new 0 0 512 512;" xml:space="preserve">
	<rect x="0" y="0.19" fill="#FFFF00" width="512" height="512"/>
	<g>
		<path d="M128,322.77l70.11-66.25L128,188.98l57.25-53.39l70.11,67.54l72.04-68.18l56.6,53.39l-72.04,68.18L384,323.41l-56.6,54.03
		l-72.04-67.54l-70.11,66.89L128,322.77z M255.36,281.6l71.4,66.89l27.02-24.44l-72.04-66.89l72.04-69.47l-25.73-25.09l-73.33,68.82
		l-70.11-67.54l-26.37,25.09l70.11,67.54l-70.75,66.25l28.3,25.73L255.36,281.6z M167.24,324.05h35.38l-3.22,3.22h-28.3
		L167.24,324.05z M170.45,185.76h27.66l3.22,3.22h-32.8L170.45,185.76z M177.53,311.83h37.95l-3.22,3.22h-37.95L177.53,311.83z
		 M176.88,198.63h34.73l2.57,2.57h-33.45L176.88,198.63z M184.6,172.9l3.21,3.22h-7.07L184.6,172.9z M183.32,336.92h5.79l-3.22,3.22
		L183.32,336.92z M191.68,298.97h37.31l-3.21,3.22h-37.95L191.68,298.97z M189.75,210.85h34.09l3.22,3.22h-33.45L189.75,210.85z
		 M204.54,286.75h36.66l-2.57,2.57h-36.66L204.54,286.75z M203.26,223.71h34.09l3.22,3.22h-33.45L203.26,223.71z M218.69,273.88
		h36.02l-3.22,3.22h-36.66L218.69,273.88z M216.12,235.93h34.09l3.22,3.22h-34.09L216.12,235.93z M228.98,248.8h52.74l-3.86,3.22
		h-45.03L228.98,248.8z M231.56,261.66h45.02l3.22,2.57h-50.81L231.56,261.66z M257.93,235.93h37.31l-3.86,3.22h-36.66
		L257.93,235.93z M256,273.88h34.73l3.22,3.22h-34.73L256,273.88z M271.44,223.71h36.66l-3.86,3.22h-36.66L271.44,223.71z
		 M303.6,286.75l3.22,2.57h-34.73l-2.57-2.57H303.6z M285.59,210.85h36.02l-3.86,3.22h-36.02L285.59,210.85z M317.75,298.97
		l3.22,3.22h-35.38l-3.22-3.22H317.75z M298.45,198.63h34.73l-2.57,2.57h-34.73L298.45,198.63z M331.26,311.83l3.22,3.22H299.1
		l-3.22-3.22H331.26z M312.6,185.76h30.23l2.57,2.57l-0.64,0.64h-36.02L312.6,185.76z M342.83,324.05l-2.57,3.22h-28.3l-3.22-3.22
		H342.83z M330.61,336.92l-3.22,3.22l-5.14-3.22H330.61z M326.75,172.9h2.57l3.22,3.22h-9.65L326.75,172.9z"/>
	</g>
</svg>
